<svg id="visual" viewBox="0 0 900 360" width="900" height="360" xmlns="http://www.w3.org/2000/svg" xmlns:xlink="http://www.w3.org/1999/xlink" version="1.1"><rect x="0" y="0" width="900" height="360" fill="#0f0f10"></rect><path d="M0 97L11.5 98.8C23 100.7 46 104.3 69 106C92 107.7 115 107.3 138.2 109.8C161.3 112.3 184.7 117.7 207.8 120.5C231 123.3 254 123.7 277 121.3C300 119 323 114 346 114.3C369 114.7 392 120.3 415.2 124C438.3 127.7 461.7 129.3 484.8 125C508 120.7 531 110.3 554 109.2C577 108 600 116 623 118.7C646 121.3 669 118.7 692.2 115.2C715.3 111.7 738.7 107.3 761.8 105.2C785 103 808 103 831 104.8C854 106.7 877 110.3 888.5 112.2L900 114L900 0L888.5 0C877 0 854 0 831 0C808 0 785 0 761.8 0C738.7 0 715.3 0 692.2 0C669 0 646 0 623 0C600 0 577 0 554 0C531 0 508 0 484.8 0C461.7 0 438.3 0 415.2 0C392 0 369 0 346 0C323 0 300 0 277 0C254 0 231 0 207.8 0C184.7 0 161.3 0 138.2 0C115 0 92 0 69 0C46 0 23 0 11.5 0L0 0Z" fill="#4facf7"></path><path d="M0 94L11.5 89.8C23 85.7 46 77.3 69 77.3C92 77.3 115 85.7 138.2 87.2C161.3 88.7 184.7 83.3 207.8 84.3C231 85.3 254 92.7 277 93.3C300 94 323 88 346 83.3C369 78.7 392 75.3 415.2 77.5C438.3 79.7 461.7 87.3 484.8 91.2C508 95 531 95 554 94.3C577 93.7 600 92.3 623 89.5C646 86.7 669 82.3 692.2 83.7C715.3 85 738.7 92 761.8 90.7C785 89.3 808 79.7 831 77.3C854 75 877 80 888.5 82.5L900 85L900 0L888.5 0C877 0 854 0 831 0C808 0 785 0 761.8 0C738.7 0 715.3 0 692.2 0C669 0 646 0 623 0C600 0 577 0 554 0C531 0 508 0 484.8 0C461.7 0 438.3 0 415.2 0C392 0 369 0 346 0C323 0 300 0 277 0C254 0 231 0 207.8 0C184.7 0 161.3 0 138.2 0C115 0 92 0 69 0C46 0 23 0 11.5 0L0 0Z" fill="#1e97fd"></path><path d="M0 49L11.5 51.2C23 53.3 46 57.7 69 61C92 64.3 115 66.7 138.2 66.2C161.3 65.7 184.7 62.3 207.8 57.8C231 53.3 254 47.7 277 45.3C300 43 323 44 346 44.7C369 45.3 392 45.7 415.2 48.8C438.3 52 461.7 58 484.8 58.7C508 59.3 531 54.7 554 52.7C577 50.7 600 51.3 623 49.7C646 48 669 44 692.2 44.3C715.3 44.7 738.7 49.3 761.8 49.3C785 49.3 808 44.7 831 44.3C854 44 877 48 888.5 50L900 52L900 0L888.5 0C877 0 854 0 831 0C808 0 785 0 761.8 0C738.7 0 715.3 0 692.2 0C669 0 646 0 623 0C600 0 577 0 554 0C531 0 508 0 484.8 0C461.7 0 438.3 0 415.2 0C392 0 369 0 346 0C323 0 300 0 277 0C254 0 231 0 207.8 0C184.7 0 161.3 0 138.2 0C115 0 92 0 69 0C46 0 23 0 11.5 0L0 0Z" fill="#0080ff"></path><path d="M0 14L11.5 17C23 20 46 26 69 28.7C92 31.3 115 30.7 138.2 32.2C161.3 33.7 184.7 37.3 207.8 34.7C231 32 254 23 277 19C300 15 323 16 346 16C369 16 392 15 415.2 16.3C438.3 17.7 461.7 21.3 484.8 25.8C508 30.3 531 35.7 554 37C577 38.3 600 35.7 623 34.5C646 33.3 669 33.7 692.2 33.5C715.3 33.3 738.7 32.7 761.8 33.7C785 34.7 808 37.3 831 34.2C854 31 877 22 888.5 17.5L900 13L900 0L888.5 0C877 0 854 0 831 0C808 0 785 0 761.8 0C738.7 0 715.3 0 692.2 0C669 0 646 0 623 0C600 0 577 0 554 0C531 0 508 0 484.8 0C461.7 0 438.3 0 415.2 0C392 0 369 0 346 0C323 0 300 0 277 0C254 0 231 0 207.8 0C184.7 0 161.3 0 138.2 0C115 0 92 0 69 0C46 0 23 0 11.5 0L0 0Z" fill="#0066ff"></path></svg>