











<svg id="visual" viewBox="0 0 900 360" width="900" height="360" xmlns="http://www.w3.org/2000/svg" xmlns:xlink="http://www.w3.org/1999/xlink" version="1.1">
<rect x="0" y="0" width="900" height="360" fill="#0f0f10">
</rect>
<path d="M0 280L8.3 281.5C16.7 283 33.3 286 50 282.2C66.7 278.3 83.3 267.7 100 263.5C116.7 259.3 133.3 261.7 150 263.2C166.7 264.7 183.3 265.3 200 269.5C216.7 273.7 233.3 281.3 250 284.8C266.7 288.3 283.3 287.7 300 289.7C316.7 291.7 333.3 296.3 350 291.8C366.7 287.3 383.3 273.7 400 273.5C416.7 273.3 433.3 286.7 450 293.7C466.7 300.7 483.3 301.3 500 293.8C516.7 286.3 533.3 270.7 550 262.2C566.7 253.7 583.3 252.3 600 251.7C616.7 251 633.3 251 650 256.7C666.7 262.3 683.3 273.7 700 277C716.7 280.3 733.3 275.7 750 272.2C766.7 268.7 783.3 266.3 800 271.7C816.7 277 833.3 290 850 289.7C866.7 289.3 883.3 275.7 891.7 268.8L900 262L900 0L891.7 0C883.3 0 866.7 0 850 0C833.3 0 816.7 0 800 0C783.3 0 766.7 0 750 0C733.3 0 716.7 0 700 0C683.3 0 666.7 0 650 0C633.3 0 616.7 0 600 0C583.3 0 566.7 0 550 0C533.3 0 516.7 0 500 0C483.3 0 466.7 0 450 0C433.3 0 416.7 0 400 0C383.3 0 366.7 0 350 0C333.3 0 316.7 0 300 0C283.3 0 266.7 0 250 0C233.3 0 216.7 0 200 0C183.3 0 166.7 0 150 0C133.3 0 116.7 0 100 0C83.3 0 66.7 0 50 0C33.3 0 16.7 0 8.3 0L0 0Z" fill="#008294">
</path>
<path d="M0 206L8.3 208.7C16.7 211.3 33.3 216.7 50 216.3C66.7 216 83.3 210 100 207.3C116.7 204.7 133.3 205.3 150 208.8C166.7 212.3 183.3 218.7 200 222.2C216.7 225.7 233.3 226.3 250 229.2C266.7 232 283.3 237 300 237.8C316.7 238.7 333.3 235.3 350 230.7C366.7 226 383.3 220 400 217.3C416.7 214.7 433.3 215.3 450 220.7C466.7 226 483.3 236 500 235.8C516.7 235.7 533.3 225.3 550 221.7C566.7 218 583.3 221 600 226.5C616.7 232 633.3 240 650 245C666.7 250 683.3 252 700 246.7C716.7 241.3 733.3 228.7 750 221C766.7 213.3 783.3 210.7 800 213.2C816.7 215.7 833.3 223.3 850 224.3C866.7 225.3 883.3 219.7 891.7 216.8L900 214L900 0L891.7 0C883.3 0 866.7 0 850 0C833.3 0 816.7 0 800 0C783.3 0 766.7 0 750 0C733.3 0 716.7 0 700 0C683.3 0 666.7 0 650 0C633.3 0 616.7 0 600 0C583.3 0 566.7 0 550 0C533.3 0 516.7 0 500 0C483.3 0 466.7 0 450 0C433.3 0 416.7 0 400 0C383.3 0 366.7 0 350 0C333.3 0 316.7 0 300 0C283.3 0 266.7 0 250 0C233.3 0 216.7 0 200 0C183.3 0 166.7 0 150 0C133.3 0 116.7 0 100 0C83.3 0 66.7 0 50 0C33.3 0 16.7 0 8.3 0L0 0Z" fill="#0084b0">
</path>
<path d="M0 202L8.3 199.5C16.7 197 33.3 192 50 191.3C66.7 190.7 83.3 194.3 100 195.3C116.7 196.3 133.3 194.7 150 188.7C166.7 182.7 183.3 172.3 200 172.5C216.7 172.7 233.3 183.3 250 189.3C266.7 195.3 283.3 196.7 300 194.5C316.7 192.3 333.3 186.7 350 184.7C366.7 182.7 383.3 184.3 400 188.7C416.7 193 433.3 200 450 202C466.7 204 483.3 201 500 195.2C516.7 189.3 533.3 180.7 550 177.2C566.7 173.7 583.3 175.3 600 175.8C616.7 176.3 633.3 175.7 650 175.5C666.7 175.3 683.3 175.7 700 179.3C716.7 183 733.3 190 750 187.2C766.7 184.3 783.3 171.7 800 166.8C816.7 162 833.3 165 850 166.7C866.7 168.3 883.3 168.7 891.7 168.8L900 169L900 0L891.7 0C883.3 0 866.7 0 850 0C833.3 0 816.7 0 800 0C783.3 0 766.7 0 750 0C733.3 0 716.7 0 700 0C683.3 0 666.7 0 650 0C633.3 0 616.7 0 600 0C583.3 0 566.7 0 550 0C533.3 0 516.7 0 500 0C483.3 0 466.7 0 450 0C433.3 0 416.7 0 400 0C383.3 0 366.7 0 350 0C333.3 0 316.7 0 300 0C283.3 0 266.7 0 250 0C233.3 0 216.7 0 200 0C183.3 0 166.7 0 150 0C133.3 0 116.7 0 100 0C83.3 0 66.7 0 50 0C33.3 0 16.7 0 8.3 0L0 0Z" fill="#0083cb">
</path>
<path d="M0 123L8.3 126C16.7 129 33.3 135 50 134.2C66.7 133.3 83.3 125.7 100 122.2C116.7 118.7 133.3 119.3 150 118.8C166.7 118.3 183.3 116.7 200 118.7C216.7 120.7 233.3 126.3 250 129.2C266.7 132 283.3 132 300 133C316.7 134 333.3 136 350 137.3C366.7 138.7 383.3 139.3 400 142.7C416.7 146 433.3 152 450 148.7C466.7 145.3 483.3 132.7 500 133.2C516.7 133.7 533.3 147.3 550 154.5C566.7 161.7 583.3 162.3 600 162.8C616.7 163.3 633.3 163.7 650 158.3C666.7 153 683.3 142 700 139.5C716.7 137 733.3 143 750 145.2C766.7 147.3 783.3 145.7 800 141.8C816.7 138 833.3 132 850 131.2C866.7 130.3 883.3 134.7 891.7 136.8L900 139L900 0L891.7 0C883.3 0 866.7 0 850 0C833.3 0 816.7 0 800 0C783.3 0 766.7 0 750 0C733.3 0 716.7 0 700 0C683.3 0 666.7 0 650 0C633.3 0 616.7 0 600 0C583.3 0 566.7 0 550 0C533.3 0 516.7 0 500 0C483.3 0 466.7 0 450 0C433.3 0 416.7 0 400 0C383.3 0 366.7 0 350 0C333.3 0 316.7 0 300 0C283.3 0 266.7 0 250 0C233.3 0 216.7 0 200 0C183.3 0 166.7 0 150 0C133.3 0 116.7 0 100 0C83.3 0 66.7 0 50 0C33.3 0 16.7 0 8.3 0L0 0Z" fill="#007cdf">
</path>
<path d="M0 96L8.3 93.3C16.7 90.7 33.3 85.3 50 84C66.7 82.7 83.3 85.3 100 90.5C116.7 95.7 133.3 103.3 150 99.7C166.7 96 183.3 81 200 74.2C216.7 67.3 233.3 68.7 250 74.7C266.7 80.7 283.3 91.3 300 93.7C316.7 96 333.3 90 350 89.5C366.7 89 383.3 94 400 93C416.7 92 433.3 85 450 87C466.7 89 483.3 100 500 104.5C516.7 109 533.3 107 550 100.3C566.7 93.7 583.3 82.3 600 80.2C616.7 78 633.3 85 650 87.7C666.7 90.3 683.3 88.7 700 91.2C716.7 93.7 733.3 100.3 750 98.5C766.7 96.7 783.3 86.3 800 85.2C816.7 84 833.3 92 850 90.3C866.7 88.7 883.3 77.3 891.7 71.7L900 66L900 0L891.7 0C883.3 0 866.7 0 850 0C833.3 0 816.7 0 800 0C783.3 0 766.7 0 750 0C733.3 0 716.7 0 700 0C683.3 0 666.7 0 650 0C633.3 0 616.7 0 600 0C583.3 0 566.7 0 550 0C533.3 0 516.7 0 500 0C483.3 0 466.7 0 450 0C433.3 0 416.7 0 400 0C383.3 0 366.7 0 350 0C333.3 0 316.7 0 300 0C283.3 0 266.7 0 250 0C233.3 0 216.7 0 200 0C183.3 0 166.7 0 150 0C133.3 0 116.7 0 100 0C83.3 0 66.7 0 50 0C33.3 0 16.7 0 8.3 0L0 0Z" fill="#0073f1">
</path>
<path d="M0 45L8.3 47.2C16.7 49.3 33.3 53.7 50 56.8C66.7 60 83.3 62 100 62C116.7 62 133.3 60 150 60.2C166.7 60.3 183.3 62.7 200 60.8C216.7 59 233.3 53 250 52.7C266.7 52.3 283.3 57.7 300 54.2C316.7 50.7 333.3 38.3 350 39.8C366.7 41.3 383.3 56.7 400 60.5C416.7 64.3 433.3 56.7 450 48.7C466.7 40.7 483.3 32.3 500 32.3C516.7 32.3 533.3 40.7 550 39.7C566.7 38.7 583.3 28.3 600 32.2C616.7 36 633.3 54 650 56.3C666.7 58.7 683.3 45.3 700 40C716.7 34.7 733.3 37.3 750 36.2C766.7 35 783.3 30 800 27.7C816.7 25.3 833.3 25.7 850 26.8C866.7 28 883.3 30 891.7 31L900 32L900 0L891.7 0C883.3 0 866.7 0 850 0C833.3 0 816.7 0 800 0C783.3 0 766.7 0 750 0C733.3 0 716.7 0 700 0C683.3 0 666.7 0 650 0C633.3 0 616.7 0 600 0C583.3 0 566.7 0 550 0C533.3 0 516.7 0 500 0C483.3 0 466.7 0 450 0C433.3 0 416.7 0 400 0C383.3 0 366.7 0 350 0C333.3 0 316.7 0 300 0C283.3 0 266.7 0 250 0C233.3 0 216.7 0 200 0C183.3 0 166.7 0 150 0C133.3 0 116.7 0 100 0C83.3 0 66.7 0 50 0C33.3 0 16.7 0 8.3 0L0 0Z" fill="#0066ff">
</path>
</svg>
